<svg width="29" height="21" viewBox="0 0 29 21" fill="none" xmlns="http://www.w3.org/2000/svg">
<path d="M28.463 16.0686V13.3536C28.463 12.1346 27.7648 11.1926 26.8519 11.0818V1.66227C26.8519 0.720317 26.1537 0 25.2407 0H3.75926C2.8463 0 2.14815 0.720317 2.14815 1.66227V11.0818C1.23519 11.1926 0.537037 12.1346 0.537037 13.3536V16.0686C0.214815 16.4011 0 16.8997 0 17.3984V18.0079C0 18.9499 0.698148 19.781 1.61111 19.8918V20.4459C1.61111 20.7784 1.82593 21 2.14815 21H3.22222C3.54444 21 3.75926 20.7784 3.75926 20.4459V19.8918H25.2407V20.4459C25.2407 20.7784 25.4556 21 25.7778 21H26.8519C27.1741 21 27.3889 20.7784 27.3889 20.4459V19.8918C28.3019 19.781 29 18.9499 29 18.0079V17.3984C29 16.8997 28.7852 16.4011 28.463 16.0686ZM3.22222 1.66227C3.22222 1.32982 3.43704 1.10818 3.75926 1.10818H25.2407C25.563 1.10818 25.7778 1.32982 25.7778 1.66227V11.0818H24.7037V8.69921C24.7037 7.53562 23.7907 6.64908 22.7167 6.64908H18.1519C17.0241 6.64908 16.1648 7.59103 16.1648 8.69921V11.0818H12.9426V8.69921C12.9426 7.53562 12.0296 6.64908 10.9556 6.64908H6.39074C5.26296 6.64908 4.4037 7.59103 4.4037 8.69921V11.0818H3.32963V1.66227H3.22222ZM23.6296 11.0818H17.1852V8.69921C17.1852 8.14512 17.6148 7.75726 18.0981 7.75726H22.663C23.2 7.75726 23.5759 8.20053 23.5759 8.69921V11.0818H23.6296ZM11.8148 11.0818H5.37037V8.69921C5.37037 8.14512 5.8 7.75726 6.28333 7.75726H10.8481C11.3852 7.75726 11.7611 8.20053 11.7611 8.69921V11.0818H11.8148ZM2.36296 12.19H2.68519H4.83333H12.3519H16.6481H24.1667H26.3148H26.637C26.9593 12.19 27.3889 12.6887 27.3889 13.3536V15.5145C27.3352 15.5145 27.2278 15.5145 27.1741 15.5145H1.82593C1.71852 15.5145 1.66481 15.5145 1.61111 15.5145V13.3536C1.61111 12.6887 1.98704 12.19 2.36296 12.19ZM27.9259 18.0633C27.9259 18.5066 27.55 18.8391 27.1741 18.8391H1.82593C1.45 18.8391 1.07407 18.4512 1.07407 18.0633V17.4538C1.07407 17.0106 1.45 16.6227 1.82593 16.6227H27.1204C27.55 16.6227 27.8722 17.0106 27.8722 17.3984V18.0633H27.9259Z" fill="#3E563E"/>
</svg>
