<svg width="29" height="25" viewBox="0 0 29 25" fill="none" xmlns="http://www.w3.org/2000/svg">
<path d="M3.65007 23.8686H5.00632V22.5575C2.88153 21.6986 1.38965 19.619 1.38965 17.1778V15.6407C0.847149 15.4598 0.485483 14.9625 0.485483 14.3748C0.485483 13.7871 0.847149 13.2898 1.38965 13.109V3.52484C1.38965 3.25359 1.57048 3.07275 1.84173 3.07275C2.11298 3.07275 2.29382 3.25359 2.29382 3.52484V13.0186H6.36257C6.63382 13.0186 6.81465 13.1994 6.81465 13.4707C6.81465 13.7419 6.63382 13.9228 6.36257 13.9228H1.84173C1.57048 13.9228 1.38965 14.1036 1.38965 14.3748C1.38965 14.6461 1.57048 14.8269 1.84173 14.8269H20.8292C21.1005 14.8269 21.2813 15.0078 21.2813 15.279C21.2813 15.5503 21.1005 15.7311 20.8292 15.7311H2.29382V17.1778C2.29382 19.8903 4.46382 22.0603 7.17632 22.0603H21.8238C24.5363 22.0603 26.7063 19.8903 26.7063 17.1778V15.7311H25.3953C25.124 15.7311 24.9432 15.5503 24.9432 15.279C24.9432 15.0078 25.124 14.8269 25.3953 14.8269H27.1584C27.4296 14.8269 27.6105 14.6461 27.6105 14.3748C27.6105 14.1036 27.4296 13.9228 27.1584 13.9228H8.1709C7.89965 13.9228 7.71881 13.7419 7.71881 13.4707C7.71881 13.1994 7.89965 13.0186 8.1709 13.0186H27.1584C27.9269 13.0186 28.5146 13.6063 28.5146 14.3748C28.5146 14.9625 28.153 15.4598 27.6105 15.6407V17.1778C27.6105 19.619 26.1186 21.6986 23.9938 22.5575V23.8686H28.0626C28.3338 23.8686 28.5146 24.0494 28.5146 24.3207C28.5146 24.5919 28.3338 24.7728 28.0626 24.7728H10.8834C10.6121 24.7728 10.4313 24.5919 10.4313 24.3207C10.4313 24.0494 10.6121 23.8686 10.8834 23.8686H21.0101L20.558 22.9644H8.44215L7.99006 23.8686H9.07507C9.34632 23.8686 9.52715 24.0494 9.52715 24.3207C9.52715 24.5919 9.34632 24.7728 9.07507 24.7728H3.65007C3.37882 24.7728 3.19798 24.5919 3.19798 24.3207C3.19798 24.0494 3.37882 23.8686 3.65007 23.8686ZM22.0046 23.8686H23.0896V22.8288C22.5019 23.0096 21.5526 22.9644 21.5526 22.9644L22.0046 23.8686ZM5.91048 23.8686H6.99548L7.44757 22.9644C7.44757 22.9644 6.58861 22.9644 5.91048 22.8288V23.8686ZM0.937567 23.8686H1.84173C2.11298 23.8686 2.29382 24.0494 2.29382 24.3207C2.29382 24.5919 2.11298 24.7728 1.84173 24.7728H0.937567C0.666315 24.7728 0.485483 24.5919 0.485483 24.3207C0.485483 24.0494 0.666315 23.8686 0.937567 23.8686Z" fill="#3E563E"/>
<path d="M5.72967 5.10723C5.45842 5.33327 5.18717 5.19764 5.09676 5.10723C4.32821 4.33869 4.2378 3.16327 4.7803 2.30431L3.74051 1.44535C2.97196 0.902852 2.29384 1.67139 2.29384 2.12348C2.29384 2.39473 2.113 2.57556 1.84175 2.57556C1.57051 2.57556 1.38967 2.39473 1.38967 2.12348C1.38967 1.1741 2.20342 0.360352 3.1528 0.360352C3.55967 0.360352 3.96655 0.495977 4.28301 0.767227L5.36801 1.67139C6.27217 1.08369 7.44759 1.1741 8.26134 1.94264C8.44217 2.12348 8.44217 2.39473 8.26134 2.57556L5.72967 5.10723ZM5.72967 2.57556C5.3228 2.98243 5.23238 3.61535 5.45842 4.11264L7.26676 2.30431C6.76946 2.07827 6.13655 2.16868 5.72967 2.57556ZM13.1438 10.7583C13.1438 10.8939 13.1438 11.2104 12.6918 11.2104C12.104 11.2104 11.652 11.572 11.4259 12.1145C11.2451 12.5214 10.8382 12.3858 10.7478 12.3406C9.97926 11.8885 9.48196 12.1597 9.30113 12.2954C9.16551 12.3858 8.93946 12.3858 8.80384 12.2954C8.66821 12.2049 8.5778 12.0241 8.623 11.8433C8.623 11.8433 8.80384 10.3514 7.26676 10.261C6.49821 10.2158 5.91051 10.8939 5.91051 11.6172C5.91051 11.8885 5.72967 12.0693 5.45842 12.0693C5.23238 12.0693 4.96113 12.1145 4.7803 12.2501C4.55425 12.3858 4.283 12.2954 4.14738 12.1145C4.01175 11.8885 4.10217 11.6172 4.28301 11.4816C4.50905 11.346 4.7803 11.2556 5.05155 11.2104C5.23238 10.1706 6.18176 9.35681 7.26676 9.35681C9.16551 9.40202 9.39155 10.8487 9.43675 11.2104C9.79842 11.1199 10.2505 11.1199 10.793 11.3008C11.1095 10.7583 11.652 10.3966 12.2849 10.261C12.4205 9.62806 12.7822 8.99514 13.3247 8.54306C13.5055 8.36223 13.7768 8.40744 13.9576 8.58827C14.1384 8.7691 14.0932 9.08556 13.9124 9.22119C13.4151 9.71848 13.1438 10.261 13.1438 10.7583ZM25.124 12.2954C24.898 12.1597 24.672 12.1145 24.4459 12.1145C24.1747 12.1145 23.9938 11.9337 23.9938 11.6624C23.9938 10.9843 23.6774 10.3062 23.1349 9.89931C22.5472 9.44723 21.7334 9.35681 20.8293 9.58285C20.6032 9.62806 20.3772 9.53764 20.2868 9.3116C20.0607 8.81431 19.6086 8.49785 19.0209 8.49785C18.5236 8.49785 18.0715 8.7691 17.8455 9.17598C17.8003 9.3116 17.529 9.62806 17.1674 9.3116C16.6701 8.85952 16.1276 8.63348 15.4947 8.67869C15.2234 8.67869 15.0426 8.49785 15.0426 8.2266C15.0426 7.95535 15.2234 7.77452 15.4947 7.77452C16.1728 7.72931 16.8057 7.95535 17.3934 8.36223C17.8003 7.91014 18.4332 7.63889 19.0661 7.63889C19.8347 7.63889 20.558 8.04577 20.9649 8.67869C22.2759 8.40744 23.1801 8.81431 23.7226 9.22119C24.3555 9.71848 24.8076 10.487 24.898 11.3008C25.1693 11.346 25.3953 11.4364 25.6213 11.572C25.8022 11.6624 25.8926 11.9337 25.757 12.1597C25.6213 12.431 25.2145 12.3406 25.124 12.2954Z" fill="#3E563E"/>
<path d="M23.0896 11.6624C23.0896 11.9337 22.9088 12.1145 22.6375 12.1145C22.3663 12.1145 22.1854 11.9337 22.1854 11.6624C22.1854 11.3912 22.0046 11.2103 21.7333 11.2103C21.4621 11.2103 21.2813 11.0295 21.2813 10.7582C21.2813 10.487 21.4621 10.3062 21.7333 10.3062C22.5019 10.3062 23.0896 10.8939 23.0896 11.6624ZM9.07502 21.1562C8.80377 21.1562 8.62293 20.9753 8.62293 20.7041C8.62293 20.4328 8.80377 20.252 9.07502 20.252H9.97918C10.2504 20.252 10.4313 20.4328 10.4313 20.7041C10.4313 20.9753 10.2504 21.1562 9.97918 21.1562H9.07502ZM3.19793 17.1326C3.19793 16.8614 3.37877 16.6805 3.65002 16.6805C3.92127 16.6805 4.1021 16.8614 4.1021 17.1326C4.1021 18.8505 5.50356 20.252 7.22148 20.252C7.49273 20.252 7.67356 20.4328 7.67356 20.7041C7.67356 20.9753 7.49273 21.1562 7.22148 21.1562C5.00627 21.1562 3.19793 19.3478 3.19793 17.1326Z" fill="#3E563E"/>
<path d="M7.94489 5.24303C7.69521 5.24303 7.49281 5.04063 7.49281 4.79095C7.49281 4.54127 7.69521 4.33887 7.94489 4.33887C8.19457 4.33887 8.39697 4.54127 8.39697 4.79095C8.39697 5.04063 8.19457 5.24303 7.94489 5.24303Z" fill="#3E563E"/>
<path d="M8.62287 7.18664C8.37319 7.18664 8.17078 6.98423 8.17078 6.73455C8.17078 6.48488 8.37319 6.28247 8.62287 6.28247C8.87255 6.28247 9.07495 6.48488 9.07495 6.73455C9.07495 6.98423 8.87255 7.18664 8.62287 7.18664Z" fill="#3E563E"/>
<path d="M9.88898 5.8756C9.6393 5.8756 9.4369 5.6732 9.4369 5.42352C9.4369 5.17384 9.6393 4.97144 9.88898 4.97144C10.1387 4.97144 10.3411 5.17384 10.3411 5.42352C10.3411 5.6732 10.1387 5.8756 9.88898 5.8756Z" fill="#3E563E"/>
<path d="M9.21076 9.08556C8.96108 9.08556 8.75868 8.88316 8.75868 8.63348C8.75868 8.3838 8.96108 8.1814 9.21076 8.1814C9.46044 8.1814 9.66284 8.3838 9.66284 8.63348C9.66284 8.88316 9.46044 9.08556 9.21076 9.08556Z" fill="#3E563E"/>
<path d="M10.5215 7.81969C10.2719 7.81969 10.0695 7.61729 10.0695 7.36761C10.0695 7.11793 10.2719 6.91553 10.5215 6.91553C10.7712 6.91553 10.9736 7.11793 10.9736 7.36761C10.9736 7.61729 10.7712 7.81969 10.5215 7.81969Z" fill="#3E563E"/>
<path d="M11.7874 6.55382C11.5377 6.55382 11.3353 6.35142 11.3353 6.10174C11.3353 5.85206 11.5377 5.64966 11.7874 5.64966C12.0371 5.64966 12.2395 5.85206 12.2395 6.10174C12.2395 6.35142 12.0371 6.55382 11.7874 6.55382Z" fill="#3E563E"/>
</svg>
