<svg width="78" height="63" viewBox="0 0 78 63" fill="none" xmlns="http://www.w3.org/2000/svg">
<path d="M1.87037 39.9569H5.53704C6.33814 43.1641 8.02454 46.0817 10.4039 48.3767C12.7832 50.6718 15.7596 52.2519 18.9937 52.9369V57.1169C18.9937 58.5366 19.5577 59.8983 20.5617 60.9022C21.5656 61.9062 22.9272 62.4702 24.347 62.4702C25.7668 62.4702 27.1285 61.9062 28.1324 60.9022C29.1364 59.8983 29.7004 58.5366 29.7004 57.1169V53.4502H52.2504V57.1169C52.2504 58.5366 52.8144 59.8983 53.8183 60.9022C54.8223 61.9062 56.1839 62.4702 57.6037 62.4702C59.0235 62.4702 60.3851 61.9062 61.3891 60.9022C62.393 59.8983 62.957 58.5366 62.957 57.1169V50.7369C65.3974 49.2658 67.4413 47.2207 68.9111 44.7796C70.3809 42.3385 71.232 39.5752 71.3904 36.7302C73.3537 34.8299 74.9 32.5419 75.9309 30.0115C76.9619 27.4812 77.455 24.764 77.3788 22.0328C77.3026 19.3015 76.6587 16.616 75.4883 14.1471C74.3178 11.6782 72.6463 9.47995 70.5801 7.69214C68.5139 5.90432 66.0982 4.5661 63.4867 3.76261C60.8752 2.95911 58.1251 2.70793 55.4113 3.02503C52.6974 3.34213 50.0793 4.22058 47.7234 5.6045C45.3675 6.98842 43.3254 8.84751 41.727 11.0635H33.477C30.6537 3.14352 20.0937 0.0635211 19.6537 0.0635211C19.3777 -0.0110925 19.088 -0.02011 18.8079 0.0371893C18.5278 0.0944887 18.2649 0.216516 18.0404 0.393521C17.8147 0.566214 17.6314 0.788052 17.5044 1.04219C17.3773 1.29632 17.3098 1.57607 17.307 1.86019V11.7969C14.3153 12.7786 11.6417 14.545 9.56499 16.9119C7.48833 19.2788 6.08467 22.1595 5.50037 25.2535H1.83371C1.34748 25.2535 0.881162 25.4467 0.537345 25.7905C0.193528 26.1343 0.000374257 26.6006 0.000374257 27.0869V38.0869C-0.004616 38.3338 0.040343 38.5792 0.132553 38.8083C0.224762 39.0375 0.362321 39.2456 0.536971 39.4203C0.711621 39.5949 0.91976 39.7325 1.14889 39.8247C1.37803 39.9169 1.62343 39.9618 1.87037 39.9569V39.9569ZM57.3837 6.88352C60.5601 6.88352 63.6651 7.82542 66.3062 9.59012C68.9472 11.3548 71.0057 13.863 72.2212 16.7976C73.4368 19.7322 73.7548 22.9613 73.1351 26.0767C72.5154 29.192 70.9859 32.0536 68.7398 34.2997C66.4938 36.5457 63.6322 38.0753 60.5169 38.6949C57.4015 39.3146 54.1724 38.9966 51.2378 37.781C48.3032 36.5655 45.795 34.507 44.0303 31.866C42.2656 29.2249 41.3237 26.1199 41.3237 22.9435C41.3237 18.6841 43.0157 14.5992 46.0276 11.5874C49.0394 8.57555 53.1243 6.88352 57.3837 6.88352V6.88352ZM3.74037 28.8835H7.15037C7.60414 28.8778 8.04033 28.7072 8.37764 28.4036C8.71495 28.1001 8.93036 27.6842 8.98371 27.2335C9.23803 24.3276 10.4027 21.576 12.3119 19.3705C14.2211 17.165 16.7775 15.6182 19.617 14.9502C20.0176 14.8512 20.373 14.62 20.6259 14.2939C20.8787 13.9679 21.0142 13.5661 21.0104 13.1535V4.28019C23.135 4.9543 25.078 6.10379 26.6917 7.64133C28.3055 9.17887 29.5476 11.064 30.3237 13.1535C30.408 13.5579 30.629 13.9208 30.9496 14.1813C31.2702 14.4417 31.6707 14.5838 32.0837 14.5835H39.417C38.0047 17.595 37.3783 20.9152 37.5963 24.2343C37.8142 27.5534 38.8695 30.7632 40.6635 33.5641C42.4576 36.3651 44.932 38.6659 47.8558 40.2518C50.7796 41.8377 54.0575 42.6571 57.3837 42.6335C60.7949 42.6336 64.1461 41.7357 67.1004 40.0302C65.9849 43.4957 63.5473 46.3812 60.317 48.0602C60.0182 48.2103 59.7673 48.4409 59.5924 48.7259C59.4175 49.0109 59.3256 49.3391 59.327 49.6735V57.0068C59.327 57.4542 59.1493 57.8832 58.833 58.1995C58.5167 58.5158 58.0877 58.6935 57.6404 58.6935C57.193 58.6935 56.764 58.5158 56.4477 58.1995C56.1314 57.8832 55.9537 57.4542 55.9537 57.0068V51.5068C55.8983 50.9981 55.6516 50.5294 55.2635 50.1958C54.8754 49.8622 54.375 49.6886 53.8637 49.7102H28.0504C27.5641 49.7102 27.0978 49.9033 26.754 50.2472C26.4102 50.591 26.217 51.0573 26.217 51.5435V57.1169C26.2221 57.3397 26.1818 57.5613 26.0989 57.7682C26.0159 57.9751 25.8918 58.163 25.7342 58.3207C25.5766 58.4783 25.3886 58.6023 25.1817 58.6853C24.9748 58.7683 24.7532 58.8085 24.5304 58.8035C24.083 58.8035 23.654 58.6258 23.3377 58.3095C23.0214 57.9932 22.8437 57.5642 22.8437 57.1169V51.3602C22.8642 50.8955 22.7037 50.441 22.396 50.0923C22.0883 49.7435 21.6573 49.5277 21.1937 49.4902C18.1642 49.1413 15.3328 47.8083 13.1339 45.6954C10.9349 43.5826 9.48988 40.8067 9.02037 37.7935C8.95093 37.3562 8.72855 36.9577 8.39283 36.669C8.05711 36.3803 7.62982 36.2201 7.18704 36.2169H3.52037L3.74037 28.8835Z" fill="#1F2F22"/>
<path d="M57.3837 24.6302C57.7727 24.6302 58.1457 24.7847 58.4208 25.0598C58.6958 25.3348 58.8504 25.7079 58.8504 26.0968C58.8574 26.4391 58.7445 26.7731 58.5311 27.0408C58.3178 27.3086 58.0176 27.4933 57.6824 27.563C57.3472 27.6326 56.9982 27.5828 56.6959 27.4222C56.3935 27.2616 56.1569 27.0003 56.027 26.6835C55.9348 26.4583 55.7987 26.2537 55.6266 26.0816C55.4544 25.9095 55.2498 25.7734 55.0245 25.6813C54.7993 25.5891 54.5579 25.5427 54.3145 25.5449C54.0712 25.547 53.8307 25.5975 53.607 25.6935C53.1674 25.8875 52.8193 26.2433 52.635 26.687C52.4506 27.1308 52.4442 27.6285 52.617 28.0768C52.8835 28.6874 53.2559 29.246 53.717 29.7268C54.244 30.227 54.868 30.6139 55.5504 30.8635V31.6335C55.5504 32.1197 55.7435 32.5861 56.0873 32.9299C56.4311 33.2737 56.8975 33.4668 57.3837 33.4668C57.8699 33.4668 58.3362 33.2737 58.68 32.9299C59.0239 32.5861 59.217 32.1197 59.217 31.6335V30.8635C60.3195 30.4232 61.2353 29.6143 61.8084 28.5747C62.3816 27.5351 62.5767 26.3289 62.3605 25.1616C62.1443 23.9943 61.5303 22.938 60.6228 22.1726C59.7154 21.4071 58.5707 20.9799 57.3837 20.9635C57.188 20.9684 56.9933 20.9341 56.8111 20.8626C56.6289 20.7911 56.4629 20.6838 56.3228 20.5471C56.1827 20.4104 56.0714 20.2471 55.9954 20.0667C55.9194 19.8863 55.8803 19.6926 55.8804 19.4968C55.913 19.2197 56.0185 18.9561 56.1863 18.7331C56.3541 18.5101 56.5781 18.3357 56.8353 18.2275C57.0926 18.1194 57.374 18.0815 57.6507 18.1177C57.9274 18.1539 58.1895 18.2629 58.4104 18.4335L58.7404 18.9102C58.9269 19.356 59.282 19.7102 59.7283 19.8956C60.1746 20.081 60.6761 20.0826 61.1237 19.9002C61.5722 19.7061 61.9269 19.3442 62.1119 18.892C62.297 18.4397 62.2976 17.9329 62.1137 17.4802C61.8513 16.8783 61.4781 16.331 61.0137 15.8668C60.5056 15.3518 59.8929 14.9517 59.217 14.6935V13.9235C59.217 13.4373 59.0239 12.971 58.68 12.6271C58.3362 12.2833 57.8699 12.0902 57.3837 12.0902C56.8975 12.0902 56.4311 12.2833 56.0873 12.6271C55.7435 12.971 55.5504 13.4373 55.5504 13.9235V14.6935C54.424 15.1181 53.4826 15.9251 52.8908 16.9733C52.2991 18.0216 52.0945 19.2445 52.3129 20.4283C52.5313 21.6121 53.1588 22.6815 54.0857 23.4495C55.0126 24.2176 56.1799 24.6355 57.3837 24.6302V24.6302ZM17.857 25.6568C18.3432 25.6568 18.8096 25.4637 19.1534 25.1199C19.4972 24.7761 19.6903 24.3097 19.6903 23.8235V21.6968C19.6903 21.2106 19.4972 20.7443 19.1534 20.4005C18.8096 20.0567 18.3432 19.8635 17.857 19.8635C17.3708 19.8635 16.9045 20.0567 16.5607 20.4005C16.2168 20.7443 16.0237 21.2106 16.0237 21.6968V23.8235C16.0237 24.3097 16.2168 24.7761 16.5607 25.1199C16.9045 25.4637 17.3708 25.6568 17.857 25.6568Z" fill="black"/>
</svg>
