<svg width="64" height="64" viewBox="0 0 64 64" fill="none" xmlns="http://www.w3.org/2000/svg">
<path d="M62.3063 53.7968L48.2069 39.6978C50.6617 35.7228 52.1459 31.086 52.1459 26.0721C52.1459 11.6723 40.4732 0 26.0729 0C11.6727 0 0 11.6723 0 26.0721C0 40.4719 11.6727 52.1442 26.0729 52.1442C31.087 52.1442 35.7239 50.6601 39.695 48.2093L53.7985 62.3083C54.9335 63.4058 56.4544 64.0132 58.0331 63.9998C59.6119 63.9863 61.1222 63.353 62.2383 62.2364C63.3545 61.1197 63.9871 59.6092 63.9998 58.0305C64.0125 56.4518 63.4043 54.9313 62.3063 53.7968ZM26.0729 44.122C16.1051 44.122 8.02244 36.0397 8.02244 26.0721C8.02244 16.1045 16.1051 8.02219 26.0729 8.02219C36.0408 8.02219 44.1234 16.1045 44.1234 26.0721C44.1234 36.0397 36.0408 44.122 26.0729 44.122Z" fill="#3E563E"/>
</svg>
