<svg width="86" height="78" viewBox="0 0 86 78" fill="none" xmlns="http://www.w3.org/2000/svg">
<path d="M50.2678 37.9745C50.6128 37.6459 50.7848 37.2524 50.7848 36.7906C50.7848 36.3113 50.6128 35.9467 50.2678 35.7018C49.9207 35.4539 49.15 35.1409 47.9577 34.7618C46.8861 34.4271 46.0482 34.0975 45.4442 33.768C44.8413 33.4427 44.3506 32.986 43.973 32.3983C43.5976 31.8095 43.4099 31.1215 43.4099 30.3405C43.4099 29.3148 43.7465 28.3912 44.4197 27.5711C44.7186 27.2064 45.094 26.9047 45.547 26.6661C45.9612 26.4471 46.4414 26.2819 46.9846 26.1703C47.0339 26.1589 47.0832 26.1496 47.1335 26.1403V24.2344H49.99V26.131C50.0539 26.1424 50.1179 26.1538 50.1808 26.1672C52.0002 26.537 53.1987 27.6124 53.7755 29.3953L51.155 30.3622L51.091 30.386C50.8508 29.7672 50.553 29.2889 50.1955 28.9522C49.7519 28.6474 49.1794 28.4956 48.48 28.4956C48.1591 28.4956 47.8739 28.5266 47.6264 28.5896H47.6253C47.3076 28.6702 47.0507 28.8013 46.8557 28.9852C46.5107 29.3137 46.3377 29.7073 46.3377 30.1691C46.3377 30.6484 46.5107 31.013 46.8557 31.2578C47.2027 31.5058 47.9735 31.8188 49.1658 32.1979C50.2375 32.5325 51.0753 32.8621 51.6793 33.1916C52.2822 33.517 52.773 33.9736 53.1494 34.5614C53.5259 35.1502 53.7136 35.8382 53.7136 36.6191C53.7136 37.6449 53.376 38.5685 52.7038 39.3886C52.4049 39.7533 52.0295 40.0549 51.5765 40.2936C51.1623 40.5125 50.682 40.6778 50.1388 40.7894C50.0896 40.8008 50.0403 40.8101 49.99 40.8194V42.7253H47.1335V40.8287C47.0695 40.8173 47.0056 40.8059 46.9427 40.7925C45.1233 40.4227 43.9248 39.3473 43.3481 37.5644L45.9685 36.5974L46.0325 36.5737C46.2726 37.1925 46.5704 37.6707 46.928 38.0075C47.3716 38.3122 47.9431 38.4641 48.6436 38.4641C48.9644 38.4641 49.2497 38.4331 49.4971 38.3701H49.4981C49.8159 38.2895 50.0728 38.1584 50.2678 37.9745ZM62.4985 49.3294V47.9174C62.4985 47.4286 62.0964 47.0324 61.6002 47.0324H35.5233C35.0272 47.0324 34.625 47.4286 34.625 47.9174V49.3294C34.625 49.8182 35.0272 50.2143 35.5233 50.2143H61.6002C62.0964 50.2143 62.4985 49.8182 62.4985 49.3294ZM61.6216 54.7508C61.4003 54.6388 61.1491 54.5752 60.8836 54.5752H36.24C35.7937 54.5752 35.3906 54.7532 35.0975 55.0407C34.8056 55.3283 34.625 55.7266 34.625 56.1662C34.625 57.0441 35.3475 57.7571 36.24 57.7571H60.3584L61.6216 54.7508ZM45.7505 63.7085C45.7505 64.1481 45.9311 64.5452 46.223 64.8328C46.5161 65.1215 46.9193 65.2994 47.3655 65.2994H59.8631C59.8583 65.1781 59.8607 65.0555 59.8691 64.9317L60.0557 62.1175H47.3655C46.473 62.1175 45.7505 62.8293 45.7505 63.7085ZM3.73794 6.61677L46.0436 0.0537372C48.4589 -0.321 50.7247 1.30412 51.1051 3.68231L52.36 11.5334H69.9753C72.4194 11.5334 74.4016 13.4861 74.4016 15.8938V24.3483L69.138 36.8708V16.7187H53.189H47.8595H27.9856V64.8917V70.1407V72.8146H69.138V64.9058L71.4371 62.3237L74.4016 55.2717V73.6396C74.4016 76.0472 72.4194 78 69.9753 78H27.1481C24.7041 78 22.7219 76.0472 22.7219 73.6396V70.9574L14.2342 72.2737C11.8189 72.6485 9.5531 71.0234 9.1727 68.6452L0.054549 11.6018C-0.325849 9.22358 1.32383 6.9915 3.73794 6.61677ZM5.38404 11.61L14.2426 67.0236L22.7219 65.7084V15.8938C22.7219 13.4861 24.7041 11.5334 27.1481 11.5334H47.0306L46.0352 5.30391L5.38404 11.61ZM77.825 24.5218L63.5602 58.4572L63.53 58.5292L63.0923 65.1379C63.0743 65.4102 63.2343 65.6633 63.4903 65.7677C63.5704 65.8003 63.6544 65.8161 63.7375 65.8161C63.9198 65.8161 64.0981 65.7401 64.2236 65.5992L68.6569 60.6206L82.9529 26.6138C83.1479 26.1503 82.9236 25.6168 82.4529 25.4248L79.032 24.0292C78.5616 23.8371 78.0198 24.0583 77.825 24.5218ZM85.3926 18.7774L82.0819 17.4266C81.8393 17.3279 81.5723 17.3278 81.3295 17.4268C81.087 17.5258 80.898 17.712 80.7976 17.951L79.4271 21.2122C79.22 21.7053 79.4586 22.2728 79.9593 22.4772L83.2693 23.8276C83.3905 23.877 83.5179 23.9017 83.6453 23.9017C83.7728 23.9017 83.9002 23.877 84.0215 23.8275C84.2641 23.7285 84.453 23.5423 84.5534 23.3035L85.9246 20.0425C86.0251 19.8036 86.0251 19.5403 85.9247 19.3014C85.8241 19.0624 85.6351 18.8763 85.3926 18.7774Z" fill="#3E563E"/>
</svg>
