<svg width="67" height="84" viewBox="0 0 67 84" fill="none" xmlns="http://www.w3.org/2000/svg">
<path d="M0 58.2647V79.6468C0 80.5609 0.74051 81.3006 1.65385 81.3006H13.7492C14.5945 81.3006 15.2652 80.6578 15.3643 79.8386C19.4095 81.0192 27.9399 83.3454 32.3921 83.3454C32.7022 83.3454 32.9929 83.334 33.2602 83.3098C41.3486 82.5927 62.2631 71.8185 63.044 71.4115C65.3001 70.4401 66.9162 68.9543 66.9162 66.1883C66.9162 62.1282 62.4293 59.6745 59.9011 60.9764L49.8859 66.177C48.3753 66.6767 44.0958 67.1029 43.6069 67.1097C43.3567 66.7659 43.039 66.4524 42.6423 66.1883C29.4902 58.8604 29.2749 58.6281 28.6758 58.6281H15.4031V58.2647C15.4031 57.3506 14.6626 56.6108 13.7492 56.6108H1.65385C0.740526 56.6109 0 57.3506 0 58.2647ZM15.4031 61.9358H28.2438L40.9408 69.0502C40.9117 69.5154 40.3981 70.7945 39.9871 71.4293L29.7143 68.4414C28.8333 68.183 27.9192 68.6885 27.6648 69.5671C27.4096 70.4441 27.9135 71.3614 28.7905 71.6166L39.1408 74.6207C39.5251 74.7741 39.9378 74.8516 40.3682 74.8516C42.296 74.8516 43.5102 72.1637 44 70.3993C44.4871 70.3763 49.1779 69.9137 51.0657 69.2699C51.2487 69.2102 52.6029 68.4879 61.1939 64.0322C62.4762 63.8857 63.6085 64.8917 63.6085 66.1883C63.6085 67.6466 62.5532 68.0217 61.63 68.422C61.4192 68.5318 40.4126 79.3561 32.9679 80.0151C29.5 80.3328 20.0064 77.7735 15.403 76.4023V61.9358H15.4031ZM3.30769 59.9185H12.0954V77.993H3.30769V59.9185ZM19.9091 25.7692C19.9091 29.5033 21.1092 33.0371 23.38 35.9895C25.5563 38.8191 27.278 44.4864 28.0193 48.8472C28.1542 49.6418 28.843 50.2232 29.6497 50.2232H43.7268C44.5376 50.2232 45.228 49.6353 45.3588 48.8358C46.0291 44.7368 47.5893 38.979 49.7818 36.2414C52.6397 32.6721 53.8954 28.1822 53.318 23.6002C52.3651 16.0351 46.164 9.93818 38.5747 9.10317C28.4812 8.01461 19.9091 15.8994 19.9091 25.7692ZM38.2129 12.3915C44.2993 13.0601 49.2722 17.949 50.0361 24.0136C50.5013 27.7008 49.4935 31.3089 47.1992 34.1741C44.435 37.6255 42.9564 43.7435 42.3427 46.9155H38.3357V33.9189L41.5376 30.7178C42.1836 30.0718 42.1836 29.0252 41.5376 28.3792C40.8915 27.7332 39.845 27.7331 39.1989 28.3792L36.6818 30.8955L34.1647 28.3792C33.5187 27.7331 32.4721 27.7331 31.8261 28.3792C31.1801 29.0252 31.18 30.0718 31.8261 30.7178L35.028 33.9189V46.9155H31.0234C30.1553 42.6275 28.4279 37.1281 26.0013 33.9738C24.1795 31.6045 23.2169 28.7668 23.2169 25.7692C23.2168 17.8408 30.1116 11.5064 38.2129 12.3915ZM38.3356 6.71123V2.30851C38.3356 1.39438 37.5951 0.654663 36.6818 0.654663C35.7685 0.654663 35.028 1.39438 35.028 2.30851V6.71123C35.028 7.62536 35.7685 8.36508 36.6818 8.36508C37.5951 8.36508 38.3356 7.62536 38.3356 6.71123Z" fill="#1F2F22"/>
<path d="M21.4716 7.92417C20.8255 7.27813 19.779 7.27813 19.1329 7.92417C18.4869 8.57021 18.4869 9.61678 19.1329 10.2628L21.8883 13.0181C22.5343 13.6642 23.5809 13.6642 24.2269 13.0181C24.873 12.3721 24.873 11.3255 24.2269 10.6795L21.4716 7.92417ZM51.475 37.9276C50.829 37.2815 49.7824 37.2815 49.1364 37.9276C48.4903 38.5736 48.4903 39.6202 49.1364 40.2662L51.8917 43.0216C52.5377 43.6676 53.5843 43.6676 54.2303 43.0216C54.8764 42.3755 54.8764 41.3289 54.2303 40.6829L51.475 37.9276ZM13.5181 23.8182C12.6048 23.8182 11.8643 24.5579 11.8643 25.4721C11.8643 26.3862 12.6048 27.1259 13.5181 27.1259H17.9208C18.8342 27.1259 19.5747 26.3862 19.5747 25.4721C19.5747 24.5579 18.8342 23.8182 17.9208 23.8182H13.5181ZM59.846 27.1259C60.7593 27.1259 61.4998 26.3862 61.4998 25.4721C61.4998 24.5579 60.7593 23.8182 59.846 23.8182H55.4433C54.5299 23.8182 53.7894 24.5579 53.7894 25.4721C53.7894 26.3862 54.5299 27.1259 55.4433 27.1259H59.846ZM21.8883 37.9276L19.1329 40.6829C18.4869 41.329 18.4869 42.3755 19.1329 43.0216C19.7789 43.6676 20.8255 43.6676 21.4716 43.0216L24.2269 40.2662C24.8729 39.6202 24.8729 38.5736 24.2269 37.9276C23.5809 37.2816 22.5343 37.2815 21.8883 37.9276ZM51.8917 7.92417L49.1364 10.6795C48.4903 11.3256 48.4903 12.3721 49.1364 13.0181C49.7824 13.6642 50.829 13.6642 51.475 13.0181L54.2303 10.2628C54.8764 9.61676 54.8764 8.57019 54.2303 7.92417C53.5843 7.27814 52.5377 7.27813 51.8917 7.92417ZM31.985 52.8703C31.0716 52.8703 30.3311 53.61 30.3311 54.5242C30.3311 55.4383 31.0716 56.178 31.985 56.178H41.3783C42.2917 56.178 43.0322 55.4383 43.0322 54.5242C43.0322 53.61 42.2917 52.8703 41.3783 52.8703H31.985Z" fill="#1F2F22"/>
</svg>
