<svg width="83" height="83" viewBox="0 0 83 83" fill="none" xmlns="http://www.w3.org/2000/svg">
<path d="M41.5 60.5313C44.1886 60.5313 46.8168 59.734 49.0523 58.2403C51.2878 56.7466 53.0301 54.6235 54.059 52.1396C55.0879 49.6557 55.3571 46.9224 54.8326 44.2855C54.308 41.6486 53.0134 39.2264 51.1122 37.3253C49.2111 35.4242 46.7889 34.1295 44.152 33.605C41.5151 33.0804 38.7818 33.3496 36.2979 34.3785C33.814 35.4074 31.6909 37.1497 30.1972 39.3852C28.7035 41.6207 27.9063 44.2489 27.9062 46.9375C27.9102 50.5416 29.3437 53.9969 31.8921 56.5454C34.4406 59.0938 37.8959 60.5273 41.5 60.5313ZM41.5 36.0625C43.6509 36.0625 45.7534 36.7003 47.5418 37.8953C49.3302 39.0902 50.7241 40.7887 51.5472 42.7758C52.3703 44.763 52.5857 46.9496 52.166 49.0591C51.7464 51.1687 50.7107 53.1064 49.1898 54.6273C47.6689 56.1482 45.7311 57.1839 43.6216 57.6035C41.5121 58.0232 39.3255 57.8078 37.3383 56.9847C35.3512 56.1616 33.6527 54.7677 32.4578 52.9793C31.2628 51.1909 30.625 49.0884 30.625 46.9375C30.6282 44.0543 31.775 41.2901 33.8138 39.2513C35.8525 37.2125 38.6168 36.0657 41.5 36.0625Z" fill="#3E563E"/>
<path d="M41.5 51.0156C41.1395 51.0156 40.7937 50.8724 40.5388 50.6175C40.2838 50.3625 40.1406 50.0168 40.1406 49.6562C40.1406 49.2957 39.9974 48.95 39.7425 48.695C39.4875 48.4401 39.1418 48.2969 38.7812 48.2969C38.4207 48.2969 38.075 48.4401 37.82 48.695C37.5651 48.95 37.4219 49.2957 37.4219 49.6562C37.4254 50.4967 37.6884 51.3155 38.1751 52.0008C38.6618 52.686 39.3482 53.2041 40.1406 53.4843V55.0938C40.1406 55.4543 40.2838 55.8 40.5388 56.055C40.7937 56.3099 41.1395 56.4531 41.5 56.4531C41.8605 56.4531 42.2063 56.3099 42.4612 56.055C42.7162 55.8 42.8594 55.4543 42.8594 55.0938V53.4843C43.7656 53.165 44.5297 52.5354 45.0162 51.7068C45.5027 50.8783 45.6803 49.9042 45.5175 48.9573C45.3547 48.0103 44.862 47.1516 44.1266 46.5331C43.3913 45.9146 42.4608 45.5763 41.5 45.5781C41.2311 45.5781 40.9683 45.4984 40.7448 45.349C40.5212 45.1997 40.347 44.9874 40.2441 44.739C40.1412 44.4906 40.1143 44.2172 40.1667 43.9535C40.2192 43.6899 40.3487 43.4476 40.5388 43.2575C40.7289 43.0674 40.9711 42.9379 41.2348 42.8855C41.4985 42.833 41.7718 42.86 42.0202 42.9629C42.2686 43.0657 42.4809 43.24 42.6303 43.4635C42.7797 43.6871 42.8594 43.9499 42.8594 44.2188C42.8594 44.5793 43.0026 44.925 43.2575 45.18C43.5125 45.4349 43.8582 45.5781 44.2188 45.5781C44.5793 45.5781 44.925 45.4349 45.18 45.18C45.4349 44.925 45.5781 44.5793 45.5781 44.2188C45.5746 43.3783 45.3116 42.5595 44.8249 41.8742C44.3382 41.189 43.6518 40.6709 42.8594 40.3907V38.7812C42.8594 38.4207 42.7162 38.075 42.4612 37.82C42.2063 37.5651 41.8605 37.4219 41.5 37.4219C41.1395 37.4219 40.7937 37.5651 40.5388 37.82C40.2838 38.075 40.1406 38.4207 40.1406 38.7812V40.3907C39.2344 40.71 38.4703 41.3396 37.9838 42.1682C37.4973 42.9967 37.3197 43.9708 37.4825 44.9177C37.6453 45.8647 38.138 46.7234 38.8734 47.3419C39.6087 47.9604 40.5392 48.2987 41.5 48.2969C41.8605 48.2969 42.2063 48.4401 42.4612 48.695C42.7162 48.95 42.8594 49.2957 42.8594 49.6562C42.8594 50.0168 42.7162 50.3625 42.4612 50.6175C42.2063 50.8724 41.8605 51.0156 41.5 51.0156Z" fill="#3E563E"/>
<path d="M78.4995 46.9375H69.6907C67.6233 40.1924 63.716 34.1573 58.4079 29.5103L50.8552 22.901C51.4409 22.434 51.8853 21.8135 52.1389 21.1086C52.3925 20.4038 52.4452 19.6423 52.2913 18.9092C52.1373 18.1761 51.7827 17.5002 51.2671 16.9569C50.7514 16.4136 50.0949 16.0242 49.3708 15.8323L56.2261 5.54997C56.3898 5.30493 56.4694 5.01335 56.453 4.71913C56.4365 4.42492 56.325 4.14401 56.135 3.91872C56.101 3.88066 56.0575 3.85755 56.0208 3.8222L56.0317 3.81133C53.9378 1.83862 51.1737 0.733439 48.2969 0.71875C46.0271 0.722957 43.8124 1.41805 41.9472 2.71159C37.7264 0.865563 33.3438 -0.984547 27.0906 3.70937C26.8125 3.91788 26.6249 4.22498 26.5662 4.56757C26.5076 4.91015 26.5824 5.26219 26.7752 5.55133L33.6306 15.8336C32.977 16.0058 32.3772 16.3394 31.8863 16.8039C31.3953 17.2683 31.029 17.8487 30.8208 18.4917C30.6127 19.1346 30.5694 19.8196 30.6951 20.4837C30.8207 21.1477 31.1112 21.7695 31.5399 22.292L25.1059 28.2978L26.9628 30.2838L33.8793 23.8281H47.7858L56.6217 31.5562C61.3344 35.6839 64.8617 40.9933 66.8401 46.9375H61.5943C60.5916 46.9386 59.6303 47.3374 58.9213 48.0463C58.2124 48.7553 57.8136 49.7166 57.8125 50.7193V54.0307C57.8164 54.9197 58.1364 55.7783 58.7151 56.4531C58.1364 57.1279 57.8164 57.9865 57.8125 58.8755V62.187C57.818 62.5854 57.8868 62.9805 58.0164 63.3574C57.1873 63.551 56.4478 64.0187 55.9174 64.6848C55.387 65.3508 55.0968 66.1763 55.0938 67.0277V70.3391C55.0968 71.1906 55.387 72.016 55.9174 72.6821C56.4478 73.3481 57.1873 73.8158 58.0164 74.0095C57.8868 74.3863 57.818 74.7814 57.8125 75.1799V78.4913C57.8187 78.6507 57.8346 78.8096 57.8601 78.9671C56.5195 79.3575 55.1307 79.558 53.7344 79.5625H53.5631C53.6714 79.2183 53.7291 78.8602 53.7344 78.4995V75.188C53.7304 74.299 53.4105 73.4404 52.8317 72.7656C53.4105 72.0908 53.7304 71.2322 53.7344 70.3432V67.0318C53.7333 66.0291 53.3345 65.0678 52.6255 64.3588C51.9165 63.6499 50.9552 63.2511 49.9526 63.25H33.0474C32.0447 63.2511 31.0835 63.6499 30.3745 64.3588C29.6655 65.0678 29.2667 66.0291 29.2656 67.0318V70.3432C29.2696 71.2322 29.5895 72.0908 30.1682 72.7656C29.5895 73.4404 29.2696 74.299 29.2656 75.188V78.4995C29.2709 78.8602 29.3286 79.2183 29.4369 79.5625H29.2656C27.8697 79.5606 26.4809 79.3629 25.1399 78.9753C25.1654 78.8178 25.1813 78.6589 25.1875 78.4995V75.188C25.182 74.7896 25.1132 74.3945 24.9836 74.0176C25.8127 73.824 26.5522 73.3563 27.0826 72.6902C27.613 72.0242 27.9032 71.1987 27.9062 70.3473V67.0318C27.9032 66.1804 27.613 65.3549 27.0826 64.6888C26.5522 64.0228 25.8127 63.5551 24.9836 63.3615C25.1132 62.9846 25.182 62.5895 25.1875 62.191V58.8755C25.1836 57.9865 24.8636 57.1279 24.2849 56.4531C24.8636 55.7783 25.1836 54.9197 25.1875 54.0307V50.7193C25.1864 49.7166 24.7876 48.7553 24.0786 48.0463C23.3697 47.3374 22.4084 46.9386 21.4057 46.9375H15.9274C17.6407 41.4206 20.6802 36.4078 24.7797 32.3378L22.8766 30.4061C18.2545 34.9893 14.8847 40.681 13.0891 46.9375H4.50053C3.49787 46.9386 2.53659 47.3374 1.8276 48.0463C1.11861 48.7553 0.719829 49.7166 0.71875 50.7193V54.0307C0.722688 54.9197 1.04262 55.7783 1.62138 56.4531C1.04262 57.1279 0.722688 57.9865 0.71875 58.8755V62.187C0.721828 63.0384 1.01202 63.8639 1.54239 64.5299C2.07276 65.196 2.8123 65.6636 3.64141 65.8573C3.51182 66.2341 3.44299 66.6292 3.4375 67.0277V70.3391C3.44299 70.7376 3.51182 71.1327 3.64141 71.5096C2.81094 71.7035 2.07038 72.1724 1.53986 72.8401C1.00935 73.5078 0.719993 74.3352 0.71875 75.188V78.4995C0.719829 79.5021 1.11861 80.4634 1.8276 81.1724C2.53659 81.8814 3.49787 82.2802 4.50053 82.2812H21.4057C22.2808 82.2776 23.1269 81.9674 23.7969 81.4044C25.5622 81.9831 27.4079 82.2791 29.2656 82.2812H53.7344C55.5921 82.2791 57.4378 81.9831 59.2031 81.4044C59.8731 81.9674 60.7192 82.2776 61.5943 82.2812H78.4995C79.5021 82.2802 80.4634 81.8814 81.1724 81.1724C81.8814 80.4634 82.2802 79.5021 82.2812 78.4995V75.188C82.2782 74.3366 81.988 73.5111 81.4576 72.8451C80.9272 72.179 80.1877 71.7114 79.3586 71.5177C79.4882 71.1409 79.557 70.7458 79.5625 70.3473V67.0318C79.557 66.6333 79.4882 66.2382 79.3586 65.8614C80.1877 65.6677 80.9272 65.2 81.4576 64.534C81.988 63.8679 82.2782 63.0425 82.2812 62.191V58.8755C82.2773 57.9865 81.9574 57.1279 81.3786 56.4531C81.9574 55.7783 82.2773 54.9197 82.2812 54.0307V50.7193C82.2802 49.7166 81.8814 48.7553 81.1724 48.0463C80.4634 47.3374 79.5021 46.9386 78.4995 46.9375ZM52.1629 4.38906C49.8629 4.97997 47.4374 4.85573 45.2097 4.03291C46.1918 3.64063 47.2394 3.43858 48.2969 3.4375C49.6412 3.45605 50.9636 3.78152 52.1629 4.38906ZM40.9712 5.25634C44.0284 6.59533 47.4038 8.07705 51.8231 7.25734L46.2102 15.6719H36.7898L29.7754 5.15031C34.226 2.29834 37.2343 3.61422 40.9712 5.25227V5.25634ZM34.7031 21.1094C34.3426 21.1094 33.9968 20.9662 33.7419 20.7112C33.487 20.4563 33.3438 20.1105 33.3438 19.75C33.3438 19.3895 33.487 19.0437 33.7419 18.7888C33.9968 18.5338 34.3426 18.3906 34.7031 18.3906H48.2969C48.6574 18.3906 49.0032 18.5338 49.2581 18.7888C49.513 19.0437 49.6562 19.3895 49.6562 19.75C49.6562 20.1105 49.513 20.4563 49.2581 20.7112C49.0032 20.9662 48.6574 21.1094 48.2969 21.1094H34.7031ZM25.1875 70.3432C25.1871 70.625 25.075 70.8952 24.8757 71.0945C24.6765 71.2938 24.4063 71.4059 24.1245 71.4062H7.21928C6.93746 71.4059 6.66728 71.2938 6.468 71.0945C6.26872 70.8952 6.15661 70.625 6.15625 70.3432V67.0318C6.15661 66.75 6.26872 66.4798 6.468 66.2805C6.66728 66.0812 6.93746 65.9691 7.21928 65.9688H8.875V68.6875H11.5938V65.9688H14.3125V68.6875H17.0312V65.9688H19.75V68.6875H22.4688V65.9688H24.1245C24.4063 65.9691 24.6765 66.0812 24.8757 66.2805C25.075 66.4798 25.1871 66.75 25.1875 67.0318V70.3432ZM3.4375 50.7193C3.43786 50.4375 3.54997 50.1673 3.74925 49.968C3.94853 49.7687 4.21871 49.6566 4.50053 49.6562H6.15625V52.375H8.875V49.6562H11.5938V52.375H14.3125V49.6562H17.0312V52.375H19.75V49.6562H21.4057C21.6875 49.6566 21.9577 49.7687 22.157 49.968C22.3563 50.1673 22.4684 50.4375 22.4688 50.7193V54.0307C22.4684 54.3125 22.3563 54.5827 22.157 54.782C21.9577 54.9813 21.6875 55.0934 21.4057 55.0938H4.50053C4.21871 55.0934 3.94853 54.9813 3.74925 54.782C3.54997 54.5827 3.43786 54.3125 3.4375 54.0307V50.7193ZM3.4375 58.8755C3.43786 58.5937 3.54997 58.3235 3.74925 58.1243C3.94853 57.925 4.21871 57.8129 4.50053 57.8125H6.15625V60.5312H8.875V57.8125H11.5938V60.5312H14.3125V57.8125H17.0312V60.5312H19.75V57.8125H21.4057C21.6875 57.8129 21.9577 57.925 22.157 58.1243C22.3563 58.3235 22.4684 58.5937 22.4688 58.8755V62.187C22.4684 62.4688 22.3563 62.739 22.157 62.9382C21.9577 63.1375 21.6875 63.2496 21.4057 63.25H4.50053C4.21871 63.2496 3.94853 63.1375 3.74925 62.9382C3.54997 62.739 3.43786 62.4688 3.4375 62.187V58.8755ZM22.4688 78.4995C22.4684 78.7813 22.3563 79.0515 22.157 79.2507C21.9577 79.45 21.6875 79.5621 21.4057 79.5625H4.50053C4.21871 79.5621 3.94853 79.45 3.74925 79.2507C3.54997 79.0515 3.43786 78.7813 3.4375 78.4995V75.188C3.43786 74.9062 3.54997 74.636 3.74925 74.4368C3.94853 74.2375 4.21871 74.1254 4.50053 74.125H6.15625V76.8438H8.875V74.125H11.5938V76.8438H14.3125V74.125H17.0312V76.8438H19.75V74.125H21.4057C21.6875 74.1254 21.9577 74.2375 22.157 74.4368C22.3563 74.636 22.4684 74.9062 22.4688 75.188V78.4995ZM31.9844 67.0318C31.9847 66.75 32.0968 66.4798 32.2961 66.2805C32.4954 66.0812 32.7656 65.9691 33.0474 65.9688H34.7031V68.6875H37.4219V65.9688H40.1406V68.6875H42.8594V65.9688H45.5781V68.6875H48.2969V65.9688H49.9526C50.2344 65.9691 50.5046 66.0812 50.7039 66.2805C50.9032 66.4798 51.0153 66.75 51.0156 67.0318V70.3432C51.0153 70.625 50.9032 70.8952 50.7039 71.0945C50.5046 71.2938 50.2344 71.4059 49.9526 71.4062H33.0474C32.7656 71.4059 32.4954 71.2938 32.2961 71.0945C32.0968 70.8952 31.9847 70.625 31.9844 70.3432V67.0318ZM33.0474 79.5625C32.7656 79.5621 32.4954 79.45 32.2961 79.2507C32.0968 79.0515 31.9847 78.7813 31.9844 78.4995V75.188C31.9847 74.9062 32.0968 74.636 32.2961 74.4368C32.4954 74.2375 32.7656 74.1254 33.0474 74.125H34.7031V76.8438H37.4219V74.125H40.1406V76.8438H42.8594V74.125H45.5781V76.8438H48.2969V74.125H49.9526C50.2344 74.1254 50.5046 74.2375 50.7039 74.4368C50.9032 74.636 51.0153 74.9062 51.0156 75.188V78.4995C51.0153 78.7813 50.9032 79.0515 50.7039 79.2507C50.5046 79.45 50.2344 79.5621 49.9526 79.5625H33.0474ZM60.5312 50.7193C60.5316 50.4375 60.6437 50.1673 60.843 49.968C61.0423 49.7687 61.3125 49.6566 61.5943 49.6562H63.25V52.375H65.9688V49.6562H68.6875V52.375H71.4062V49.6562H74.125V52.375H76.8438V49.6562H78.4995C78.7813 49.6566 79.0515 49.7687 79.2507 49.968C79.45 50.1673 79.5621 50.4375 79.5625 50.7193V54.0307C79.5621 54.3125 79.45 54.5827 79.2507 54.782C79.0515 54.9813 78.7813 55.0934 78.4995 55.0938H61.5943C61.3125 55.0934 61.0423 54.9813 60.843 54.782C60.6437 54.5827 60.5316 54.3125 60.5312 54.0307V50.7193ZM57.8125 67.0318C57.8129 66.75 57.925 66.4798 58.1243 66.2805C58.3235 66.0812 58.5937 65.9691 58.8755 65.9688H60.5312V68.6875H63.25V65.9688H65.9688V68.6875H68.6875V65.9688H71.4062V68.6875H74.125V65.9688H75.7807C76.0625 65.9691 76.3327 66.0812 76.532 66.2805C76.7313 66.4798 76.8434 66.75 76.8438 67.0318V70.3432C76.8434 70.625 76.7313 70.8952 76.532 71.0945C76.3327 71.2938 76.0625 71.4059 75.7807 71.4062H58.8755C58.5937 71.4059 58.3235 71.2938 58.1243 71.0945C57.925 70.8952 57.8129 70.625 57.8125 70.3432V67.0318ZM79.5625 78.4995C79.5621 78.7813 79.45 79.0515 79.2507 79.2507C79.0515 79.45 78.7813 79.5621 78.4995 79.5625H61.5943C61.3125 79.5621 61.0423 79.45 60.843 79.2507C60.6437 79.0515 60.5316 78.7813 60.5312 78.4995V75.188C60.5316 74.9062 60.6437 74.636 60.843 74.4368C61.0423 74.2375 61.3125 74.1254 61.5943 74.125H63.25V76.8438H65.9688V74.125H68.6875V76.8438H71.4062V74.125H74.125V76.8438H76.8438V74.125H78.4995C78.7813 74.1254 79.0515 74.2375 79.2507 74.4368C79.45 74.636 79.5621 74.9062 79.5625 75.188V78.4995ZM79.5625 62.187C79.5621 62.4688 79.45 62.739 79.2507 62.9382C79.0515 63.1375 78.7813 63.2496 78.4995 63.25H61.5943C61.3125 63.2496 61.0423 63.1375 60.843 62.9382C60.6437 62.739 60.5316 62.4688 60.5312 62.187V58.8755C60.5316 58.5937 60.6437 58.3235 60.843 58.1243C61.0423 57.925 61.3125 57.8129 61.5943 57.8125H63.25V60.5312H65.9688V57.8125H68.6875V60.5312H71.4062V57.8125H74.125V60.5312H76.8438V57.8125H78.4995C78.7813 57.8129 79.0515 57.925 79.2507 58.1243C79.45 58.3235 79.5621 58.5937 79.5625 58.8755V62.187Z" fill="#3E563E"/>
</svg>
