<svg width="59" height="52" viewBox="0 0 59 52" fill="none" xmlns="http://www.w3.org/2000/svg">
<path d="M51.1457 47.0448L41.3267 37.2547C44.4947 33.2186 46.2137 28.2346 46.2073 23.1037C46.2073 18.5342 44.8523 14.0673 42.3137 10.268C39.775 6.46859 36.1667 3.50733 31.9451 1.75867C27.7234 0.0100104 23.078 -0.447519 18.5964 0.443941C14.1147 1.3354 9.99802 3.53581 6.76692 6.76692C3.53581 9.99802 1.3354 14.1147 0.443941 18.5964C-0.447519 23.078 0.0100104 27.7234 1.75867 31.9451C3.50733 36.1667 6.46859 39.775 10.268 42.3137C14.0673 44.8523 18.5342 46.2073 23.1037 46.2073C28.2346 46.2137 33.2186 44.4947 37.2547 41.3267L47.0448 51.1457C47.3133 51.4164 47.6327 51.6313 47.9847 51.7779C48.3366 51.9245 48.7141 52 49.0953 52C49.4765 52 49.854 51.9245 50.2059 51.7779C50.5579 51.6313 50.8773 51.4164 51.1457 51.1457C51.4164 50.8773 51.6313 50.5579 51.7779 50.2059C51.9245 49.854 52 49.4765 52 49.0953C52 48.7141 51.9245 48.3366 51.7779 47.9847C51.6313 47.6327 51.4164 47.3133 51.1457 47.0448ZM5.77593 23.1037C5.77593 19.6766 6.79218 16.3264 8.69618 13.4769C10.6002 10.6274 13.3064 8.40642 16.4726 7.09492C19.6389 5.78343 23.1229 5.44028 26.4842 6.10887C29.8454 6.77747 32.9329 8.42778 35.3562 10.8511C37.7796 13.2744 39.4299 16.3619 40.0985 19.7232C40.7671 23.0845 40.4239 26.5685 39.1124 29.7347C37.8009 32.901 35.58 35.6072 32.7305 37.5112C29.8809 39.4152 26.5308 40.4314 23.1037 40.4314C18.5081 40.4314 14.1007 38.6058 10.8511 35.3562C7.60152 32.1067 5.77593 27.6993 5.77593 23.1037Z" fill="#1F2F22"/>
</svg>
