<svg width="66" height="66" viewBox="0 0 66 66" fill="none" xmlns="http://www.w3.org/2000/svg">
<path d="M16.5 30.6429H30.6428C31.268 30.6429 31.8675 30.3945 32.3096 29.9525C32.7516 29.5104 33 28.9109 33 28.2857C33 27.6606 32.7516 27.061 32.3096 26.619C31.8675 26.1769 31.268 25.9286 30.6428 25.9286H16.5C15.8748 25.9286 15.2753 26.1769 14.8332 26.619C14.3912 27.061 14.1428 27.6606 14.1428 28.2857C14.1428 28.9109 14.3912 29.5104 14.8332 29.9525C15.2753 30.3945 15.8748 30.6429 16.5 30.6429V30.6429ZM16.5 21.2143H30.6428C31.268 21.2143 31.8675 20.9659 32.3096 20.5239C32.7516 20.0818 33 19.4823 33 18.8571C33 18.232 32.7516 17.6324 32.3096 17.1904C31.8675 16.7483 31.268 16.5 30.6428 16.5H16.5C15.8748 16.5 15.2753 16.7483 14.8332 17.1904C14.3912 17.6324 14.1428 18.232 14.1428 18.8571C14.1428 19.4823 14.3912 20.0818 14.8332 20.5239C15.2753 20.9659 15.8748 21.2143 16.5 21.2143V21.2143ZM49.5 44.7857C48.8748 44.7857 48.2753 45.0341 47.8332 45.4761C47.3912 45.9182 47.1428 46.5177 47.1428 47.1429V51.8571C47.1428 52.4823 47.3912 53.0818 47.8332 53.5239C48.2753 53.9659 48.8748 54.2143 49.5 54.2143C50.1251 54.2143 50.7247 53.9659 51.1667 53.5239C51.6088 53.0818 51.8571 52.4823 51.8571 51.8571V47.1429C51.8571 46.5177 51.6088 45.9182 51.1667 45.4761C50.7247 45.0341 50.1251 44.7857 49.5 44.7857ZM49.5 30.6429C48.8748 30.6429 48.2753 30.8912 47.8332 31.3332C47.3912 31.7753 47.1428 32.3748 47.1428 33V37.7143C47.1428 38.3394 47.3912 38.939 47.8332 39.381C48.2753 39.8231 48.8748 40.0714 49.5 40.0714C50.1251 40.0714 50.7247 39.8231 51.1667 39.381C51.6088 38.939 51.8571 38.3394 51.8571 37.7143V33C51.8571 32.3748 51.6088 31.7753 51.1667 31.3332C50.7247 30.8912 50.1251 30.6429 49.5 30.6429Z" fill="#1F2F22"/>
<path d="M63.6429 61.2857H61.2857V25.9286C61.2857 24.0531 60.5407 22.2545 59.2145 20.9283C57.8884 19.6022 56.0897 18.8571 54.2143 18.8571H42.4286V11.7857C42.4286 9.91026 41.6835 8.11161 40.3574 6.78546C39.0312 5.45931 37.2326 4.71429 35.3571 4.71429H25.9286V2.35714C25.9286 1.73199 25.6802 1.13244 25.2382 0.690391C24.7961 0.248341 24.1966 0 23.5714 0C22.9463 0 22.3467 0.248341 21.9047 0.690391C21.4626 1.13244 21.2143 1.73199 21.2143 2.35714V4.71429H11.7857C9.91026 4.71429 8.11161 5.45931 6.78546 6.78546C5.45931 8.11161 4.71429 9.91026 4.71429 11.7857V61.2857H2.35714C1.73199 61.2857 1.13244 61.5341 0.690391 61.9761C0.248341 62.4182 0 63.0177 0 63.6429C0 64.268 0.248341 64.8676 0.690391 65.3096C1.13244 65.7517 1.73199 66 2.35714 66H63.6429C64.268 66 64.8676 65.7517 65.3096 65.3096C65.7517 64.8676 66 64.268 66 63.6429C66 63.0177 65.7517 62.4182 65.3096 61.9761C64.8676 61.5341 64.268 61.2857 63.6429 61.2857ZM9.42857 11.7857C9.42857 11.1606 9.67691 10.561 10.119 10.119C10.561 9.67691 11.1606 9.42857 11.7857 9.42857H35.3571C35.9823 9.42857 36.5818 9.67691 37.0239 10.119C37.4659 10.561 37.7143 11.1606 37.7143 11.7857V61.2857H33V42.4286C33 41.1783 32.5033 39.9792 31.6192 39.0951C30.7351 38.211 29.536 37.7143 28.2857 37.7143H18.8571C17.6068 37.7143 16.4077 38.211 15.5236 39.0951C14.6395 39.9792 14.1429 41.1783 14.1429 42.4286V61.2857H9.42857V11.7857ZM18.8571 61.2857V42.4286H28.2857V61.2857H18.8571ZM42.4286 61.2857V23.5714H54.2143C54.8394 23.5714 55.439 23.8198 55.881 24.2618C56.3231 24.7039 56.5714 25.3034 56.5714 25.9286V61.2857H42.4286Z" fill="#1F2F22"/>
</svg>
