<svg width="129" height="75" viewBox="0 0 129 75" fill="none" xmlns="http://www.w3.org/2000/svg">
<path d="M3.89083 46.0247L20.4067 51.4652C22.9326 52.2425 25.6529 51.2709 26.8187 49.1336L54.6042 71.2843C54.7985 71.4786 54.7985 71.4786 54.9928 71.4786C59.6561 73.4216 64.9023 74.1988 68.7884 71.09L70.9257 73.2273C73.063 75.1703 78.6979 75.3646 80.8352 73.033C81.6124 72.0615 82.001 71.09 82.1953 70.1184C84.9156 70.3127 87.4415 69.1469 87.6358 68.9526C89.9675 67.9811 90.939 65.6494 91.3276 63.7064C95.9909 64.095 98.9055 62.152 100.071 59.0431C100.849 57.1001 100.654 54.7684 99.6827 53.0197L102.597 51.0766C103.763 52.4368 105.318 53.214 107.066 53.214C107.843 53.214 108.621 53.0197 109.398 52.8254L124.554 46.219C127.468 44.8589 128.828 41.5558 127.662 38.6412L114.644 6.58103C113.478 3.66647 109.981 2.30634 107.066 3.27786L90.5504 9.49559C88.996 10.0785 87.6358 11.4386 87.0529 13.3817C73.4517 7.55255 51.4953 7.94115 36.7282 9.68989C36.3396 8.13546 34.9795 6.77533 33.425 5.99811L17.4921 0.363299C14.3832 -0.802525 11.0801 0.94621 10.1086 4.05507L0.199054 39.2241C-0.578162 42.1387 0.97627 45.0532 3.89083 46.0247ZM96.3795 57.683C95.408 60.2089 92.882 60.2089 90.3561 59.626L76.7548 43.6931C75.9776 42.9159 74.8118 42.7216 74.0346 43.4988C73.2573 44.276 73.063 45.4418 73.8403 46.219L87.4415 62.152C87.4415 62.9292 87.2472 64.8722 85.8871 65.4551C85.6928 65.4551 83.7498 66.4267 81.6124 66.038L67.2339 48.1621C66.651 47.3849 65.2909 47.1906 64.5137 47.7735C63.7365 48.3564 63.5422 49.7165 64.1251 50.4937L78.5036 68.3697C78.3093 71.2843 76.3662 70.507 76.1719 70.7013C72.4801 70.7013 73.4517 69.7298 70.1485 67.0096L58.6846 53.0197C57.9073 52.2425 56.7415 52.0482 55.9643 52.8254C55.1871 53.6026 54.9928 54.7684 55.77 55.5456L66.2624 68.1754C63.5421 70.1184 59.8504 69.3412 56.9358 67.9811L27.9845 45.2475C28.7617 41.9444 24.8757 56.9058 36.3396 13.9646C38.2826 13.7703 42.363 13.3817 47.4149 12.9931C44.6947 17.8507 40.8086 26.5943 45.0833 32.0349C50.9124 39.2241 60.8219 30.4804 64.9023 28.1488C66.0681 28.1488 79.0865 28.7317 95.0194 53.6026C95.6023 53.7969 97.351 55.157 96.3795 57.683ZM91.9105 13.3817L108.426 7.16394C109.398 6.77533 110.564 7.35824 110.952 8.32976L124.165 40.1956C124.554 41.1671 124.165 42.333 123.193 42.7216L117.947 45.0532C119.696 44.0817 120.862 42.333 120.862 40.1956C120.862 37.0868 118.336 34.5608 115.227 34.5608C112.118 34.5608 109.592 37.0868 109.592 40.1956C109.592 43.8874 113.09 46.6077 116.781 45.4418L107.843 49.3279C106.872 49.7165 105.706 49.3279 105.318 48.3564C104.929 46.9963 91.1333 16.2962 90.7447 15.9076C90.3561 14.7418 90.939 13.7703 91.9105 13.3817ZM116.976 40.0013C116.976 40.9728 116.199 41.75 115.227 41.75C114.255 41.75 113.478 40.9728 113.478 40.0013C113.478 39.0298 114.255 38.2526 115.227 38.2526C116.199 38.2526 116.976 39.0298 116.976 40.0013ZM87.6358 18.2393L101.043 47.5792L97.7397 49.7165C81.4181 25.2342 67.0396 23.4855 64.1251 24.2627C63.5422 24.457 62.9592 24.8456 61.5991 25.8171C56.3529 29.5089 50.9124 32.8121 48.3864 29.5089C45.0833 25.4285 49.7466 16.6848 52.2725 12.6044C62.9592 12.4101 77.9206 13.1874 87.6358 18.2393ZM3.89083 40.3899L13.9946 5.2209C14.1889 4.24938 15.1605 3.66647 16.132 4.05507L31.8706 10.0785C32.6478 10.4671 33.0364 11.2443 32.8421 12.0215C20.2124 59.8203 24.4871 43.3045 23.5155 46.802C23.3212 47.7735 22.3497 48.1621 21.3782 47.9678L4.86235 42.5273C4.27944 42.1387 3.69653 41.1671 3.89083 40.3899Z" fill="#3E563E"/>
</svg>
