<svg width="134" height="24" viewBox="0 0 134 24" fill="none" xmlns="http://www.w3.org/2000/svg">
<path d="M11.725 1.61804L13.8819 8.25628L13.9942 8.60178H14.3574H21.3373L15.6905 12.7044L15.3966 12.918L15.5088 13.2635L17.6657 19.9017L12.0189 15.799L11.725 15.5855L11.4311 15.799L5.78427 19.9017L7.94117 13.2635L8.05343 12.918L7.75954 12.7044L2.1127 8.60178H9.09257H9.45584L9.5681 8.25628L11.725 1.61804Z" fill="#3E563E" stroke="#3E563E"/>
<path d="M39.3625 1.61804L41.5194 8.25628L41.6316 8.60178H41.9949H48.9747L43.3279 12.7044L43.034 12.918L43.1463 13.2635L45.3032 19.9017L39.6563 15.799L39.3625 15.5855L39.0686 15.799L33.4217 19.9017L35.5786 13.2635L35.6909 12.918L35.397 12.7044L29.7502 8.60178H36.73H37.0933L37.2056 8.25628L39.3625 1.61804Z" fill="#3E563E" stroke="#3E563E"/>
<path d="M66.9999 1.61804L69.1568 8.25628L69.2691 8.60178H69.6323H76.6122L70.9654 12.7044L70.6715 12.918L70.7837 13.2635L72.9406 19.9017L67.2938 15.799L66.9999 15.5855L66.706 15.799L61.0592 19.9017L63.2161 13.2635L63.3283 12.918L63.0344 12.7044L57.3876 8.60178H64.3675H64.7307L64.843 8.25628L66.9999 1.61804Z" fill="#3E563E" stroke="#3E563E"/>
<path d="M94.6376 1.61804L96.7945 8.25628L96.9068 8.60178H97.27H104.25L98.6031 12.7044L98.3092 12.918L98.4214 13.2635L100.578 19.9017L94.9315 15.799L94.6376 15.5855L94.3437 15.799L88.6969 19.9017L90.8538 13.2635L90.966 12.918L90.6721 12.7044L85.0253 8.60178H92.0052H92.3684L92.4807 8.25628L94.6376 1.61804Z" fill="#3E563E" stroke="#3E563E"/>
<path d="M122.275 1.61804L124.432 8.25628L124.544 8.60178H124.907H131.887L126.241 12.7044L125.947 12.918L126.059 13.2635L128.216 19.9017L122.569 15.799L122.275 15.5855L121.981 15.799L116.334 19.9017L118.491 13.2635L118.603 12.918L118.31 12.7044L112.663 8.60178H119.643H120.006L120.118 8.25628L122.275 1.61804Z" fill="#3E563E" stroke="#3E563E"/>
</svg>
