<svg width="135" height="24" viewBox="0 0 135 24" fill="none" xmlns="http://www.w3.org/2000/svg">
<path d="M11.8125 1.61804L13.989 8.31675L14.1013 8.66224H14.4646H21.508L15.8097 12.8023L15.5159 13.0158L15.6281 13.3613L17.8047 20.06L12.1064 15.92L11.8125 15.7064L11.5186 15.92L5.82034 20.06L7.99689 13.3613L8.10914 13.0158L7.81525 12.8023L2.11699 8.66224H9.16043H9.5237L9.63596 8.31675L11.8125 1.61804Z" fill="#3E563E" stroke="#3E563E"/>
<path d="M39.6562 1.61804L41.8328 8.31675L41.945 8.66224H42.3083H49.3518L43.6535 12.8023L43.3596 13.0158L43.4719 13.3613L45.6484 20.06L39.9501 15.92L39.6562 15.7064L39.3624 15.92L33.6641 20.06L35.8406 13.3613L35.9529 13.0158L35.659 12.8023L29.9607 8.66224H37.0042H37.3675L37.4797 8.31675L39.6562 1.61804Z" fill="#3E563E" stroke="#3E563E"/>
<path d="M67.5 1.61804L69.6765 8.31675L69.7888 8.66224H70.1521H77.1955L71.4972 12.8023L71.2034 13.0158L71.3156 13.3613L73.4922 20.06L67.7939 15.92L67.5 15.7064L67.2061 15.92L61.5078 20.06L63.6844 13.3613L63.7966 13.0158L63.5028 12.8023L57.8045 8.66224H64.8479H65.2112L65.3235 8.31675L67.5 1.61804Z" fill="#3E563E" stroke="#3E563E"/>
<path d="M95.3438 1.61804L97.5203 8.31675L97.6325 8.66224H97.9958H105.039L99.341 12.8023L99.0471 13.0158L99.1594 13.3613L101.336 20.06L95.6376 15.92L95.3438 15.7064L95.0499 15.92L89.3516 20.06L91.5281 13.3613L91.6404 13.0158L91.3465 12.8023L85.6482 8.66224H92.6917H93.055L93.1672 8.31675L95.3438 1.61804Z" fill="#3E563E" stroke="#3E563E"/>
<path d="M123.188 1.61804L125.364 8.31675L125.476 8.66224H125.84H132.883L127.185 12.8023L126.891 13.0158L127.003 13.3613L129.18 20.06L123.481 15.92L123.188 15.7064L122.894 15.92L117.195 20.06L119.372 13.3613L119.484 13.0158L119.19 12.8023L113.492 8.66224H120.535H120.899L121.011 8.31675L123.188 1.61804Z" stroke="#3E563E"/>
<path d="M123.188 1.6875V16.0312L117.281 19.8281L119.391 13.0781L113.484 8.4375H121.078L123.188 1.6875Z" fill="#3E563E"/>
</svg>
